<?xml version="1.0" encoding="UTF-8"?>
<svg width="47px" height="42px" viewBox="0 0 47 42" version="1.1" xmlns="http://www.w3.org/2000/svg" xmlns:xlink="http://www.w3.org/1999/xlink">
    <!-- Generator: Sketch 57 (83077) - https://sketch.com -->
    <title>警告，警示，故障，感叹号</title>
    <desc>Created with Sketch.</desc>
    <g id="页面-1" stroke="none" stroke-width="1" fill="none" fill-rule="evenodd">
        <g id="用户数据1" transform="translate(-399.000000, -150.000000)" fill-rule="nonzero">
            <g id="警告，警示，故障，感叹号" transform="translate(399.000000, 148.000000)">
                <rect id="矩形" fill="#000000" opacity="0" x="0" y="0" width="47" height="47"></rect>
                <path d="M6,26 C6,32.430673 9.43038717,38.372998 14.9997391,41.5884277 C20.5690911,44.8038574 27.4309089,44.8038574 33.0002609,41.5884277 C38.5696128,38.372998 42,32.430673 42,26 C42,19.569327 38.5696128,13.627002 33.0002609,10.4115723 C27.4309089,7.19614258 20.5690911,7.19614258 14.9997391,10.4115723 C9.43038717,13.627002 6,19.569327 6,26 Z" id="路径" fill="#E9EAEB"></path>
                <path d="M42.3668842,32.2949564 L26.2110718,7.95340683 C24.7147303,5.34886439 22.2898554,5.34886439 20.796854,7.95340683 L4.64104162,32.2949564 C3.14470009,34.8994988 4.35713756,37 7.34982058,37 L39.6581052,37 C42.6474482,37.013379 43.8465254,34.8994988 42.3668842,32.2949564 Z" id="路径" fill="#FFFFFF"></path>
                <path d="M38.9577307,38 L7.03634281,38 C5.3335168,38 4.03989702,37.3848698 3.40628734,36.2703596 C2.77267766,35.1558495 2.87827929,33.7238528 3.73629237,32.245556 L3.76269275,32.2058702 L19.6920362,8.27201321 C20.5434493,6.80694502 21.7149671,6 22.9920867,6 C24.2725063,6 25.4440241,6.80694502 26.2921371,8.27201321 L42.2643812,32.245556 C43.1157943,33.7238529 43.231296,35.1525424 42.5943863,36.2703596 C41.9574765,37.3881769 40.6638568,38 38.9577307,38 Z M4.99031153,33.0062009 C4.42270286,33.9983464 4.31380118,34.8945845 4.67680674,35.5295576 C5.0398123,36.1645308 5.88132514,36.5217032 7.03634281,36.5217032 L38.9577307,36.5217032 C40.1127484,36.5217032 40.937761,36.1711451 41.3172668,35.5295576 C41.6967726,34.8879702 41.5713707,34.0016536 41.003762,33.0062009 L25.0315178,9.03596525 C24.454009,8.04381973 23.7312979,7.48160394 22.9986868,7.48160394 C22.2627755,7.48160394 21.5400645,8.03389828 20.9625556,9.03596525 L20.9361553,9.07565109 L4.99031153,33.0062009 Z" id="形状" fill="#2A5082"></path>
                <path d="M40.975018,40.8498124 L40.975018,39.3546036 C42.6348681,39.3541561 44.1611388,38.4427866 44.9514288,36.9802022 C45.7417187,35.5176177 45.6690608,33.7387953 44.7621323,32.3458157 L46.0178422,31.5214487 C47.2279823,33.3741988 47.3268829,35.7426361 46.2754357,37.6902065 C45.2239884,39.637777 43.1914999,40.8508781 40.9816796,40.8498124 L40.975018,40.8498124 Z M27.2821181,5.54888312 C26.4468626,4.26736694 25.0225267,3.49484022 23.4950038,3.49484022 C21.9674809,3.49484022 20.543145,4.26736694 19.7078894,5.54888312 L18.4588412,4.73119119 C19.5696951,3.02717953 21.4637563,2 23.4950038,2 C25.5262513,2 27.4203125,3.02717953 28.5311664,4.73119119 L27.2821181,5.54888312 Z M6.01832042,40.8498124 C3.80850009,40.8508781 1.77601158,39.637777 0.724564333,37.6902065 C-0.326882914,35.7426361 -0.227982295,33.3741988 0.982157795,31.5214487 L2.23120603,32.3391406 C1.32427755,33.7321203 1.25161966,35.5109427 2.04190961,36.9735272 C2.83219956,38.4361116 4.35847034,39.3474811 6.01832042,39.3479286 L6.01832042,40.8498124 Z M27.4852967,39.5047919 L28.977493,39.5047919 L28.977493,41 L27.4852967,41 L27.4852967,39.5047919 Z M24.4975732,39.5047919 L25.9897695,39.5047919 L25.9897695,41 L24.4975732,41 L24.4975732,39.5047919 Z M21.5131806,39.5047919 L23.0053769,39.5047919 L23.0053769,41 L21.5131806,41 L21.5131806,39.5047919 Z M18.5254571,39.5047919 L20.0176534,39.5047919 L20.0176534,41 L18.5254571,41 L18.5254571,39.5047919 Z" id="形状" fill="#BCC0C4"></path>
                <path d="M23.5019043,13 C25.0301892,13 26.0690441,14.2578434 25.996419,15.49855 L25.3459506,24.3514369 C25.2733255,25.2528342 24.982825,26 23.5019043,26 C22.0209835,26 21.7304831,25.2528341 21.657858,24.3480095 L21.0073896,15.4951226 C20.9000307,14.2578434 21.9736193,13 23.5019043,13 Z" id="路径" fill="#A3D4FF"></path>
                <path d="M23.4986493,27 C21.7720149,27 20.8499922,26.2574556 20.7118614,24.7327645 L20.0073946,16.2017546 C19.9495928,15.4296678 20.2326117,14.6697087 20.7878333,14.1061293 C21.492109,13.3886539 22.4797152,12.9874068 23.5090091,13.0005632 C24.5054675,12.9833309 25.4646938,13.3622047 26.1576662,14.0467257 C26.7313918,14.6160297 27.0348449,15.3857882 26.9968104,16.175353 L26.2854371,24.7294643 C26.1473064,26.2574557 25.2356434,27 23.4986493,27 L23.4986493,27 Z M23.4986493,14.4790516 C22.9054825,14.4668847 22.3341984,14.6931711 21.9239587,15.1027889 C21.6592844,15.3617617 21.5202581,15.714868 21.5406459,16.0763471 L22.2554725,24.607357 C22.3038183,25.1518896 22.338351,25.5182114 23.4986493,25.5182114 C24.6589476,25.5182114 24.6934802,25.1551897 24.741826,24.6040568 L25.4531993,16.0829475 C25.4608106,15.7052019 25.3075041,15.3407111 25.0284473,15.0730871 C24.6266732,14.6810509 24.0726826,14.4659309 23.4986493,14.4790516 L23.4986493,14.4790516 Z" id="形状" fill="#2A5082"></path>
                <path d="M21,31.5 C21,32.8807119 22.1192881,34 23.5,34 C24.8807119,34 26,32.8807119 26,31.5 C26,30.1192881 24.8807119,29 23.5,29 C22.1192881,29 21,30.1192881 21,31.5 L21,31.5 Z" id="路径" fill="#A3D4FF"></path>
                <path d="M23.4895959,34.9999932 C21.5575163,34.9942407 19.9955533,33.4239988 20.0000095,31.4919135 C20.0044849,29.5598282 21.57369,27.9968237 23.5057755,28.0000048 C25.4378611,28.0031958 27.0019028,29.5713671 26.9999983,31.5034566 C26.9981584,32.4326345 26.6272806,33.3230252 25.9689524,33.9787521 C25.3106241,34.634479 24.4187726,35.0018281 23.4895959,34.9999932 L23.4895959,34.9999932 Z M23.4895959,29.5609402 C22.4167749,29.5609402 21.5470817,30.4306344 21.5470817,31.5034566 C21.5470817,32.5762789 22.4167749,33.4459731 23.4895959,33.4459731 C24.5624169,33.4459731 25.4321101,32.5762789 25.4321101,31.5034566 C25.4302009,30.4314262 24.561625,29.5628494 23.4895959,29.5609402 Z" id="形状" fill="#2A5082"></path>
            </g>
        </g>
    </g>
</svg>