<?xml version="1.0" encoding="utf-8"?>
<!-- Generator: Adobe Illustrator 21.0.0, SVG Export Plug-In . SVG Version: 6.00 Build 0)  -->
<svg version="1.1" id="图层_1" xmlns="http://www.w3.org/2000/svg" xmlns:xlink="http://www.w3.org/1999/xlink" x="0px" y="0px"
	 viewBox="0 0 47 47" style="enable-background:new 0 0 47 47;" xml:space="preserve">
<style type="text/css">
	.st0{fill:#E9EAEB;}
	.st1{fill:#FFFFFF;}
	.st2{fill:#2A5082;}
	.st3{fill:#A3D4FF;}
	.st4{fill:#BCC0C4;}
</style>
<g id="路径">
	<path class="st0" d="M5.5,23.5c0,6.4,3.4,12.4,9,15.6c5.6,3.2,12.4,3.2,18,0s9-9.2,9-15.6s-3.4-12.4-9-15.6s-12.4-3.2-18,0
		S5.5,17.1,5.5,23.5z"/>
</g>
<g>
	<g>
		<polyline class="st1" points="26.7,34.9 30.5,39.3 16.5,39.3 20.3,34.9 		"/>
		<path class="st2" d="M30.5,40.1h-14c-0.3,0-0.6-0.2-0.7-0.5s-0.1-0.6,0.1-0.9l3.8-4.4l1.2,1l-2.7,3.1h10.5l-2.7-3.1l1.2-1l3.8,4.4
			c0.2,0.2,0.3,0.6,0.1,0.9C31.1,39.9,30.8,40.1,30.5,40.1z"/>
	</g>
	<g>
		<path class="st1" d="M4.2,29.7v-19c0-1.7,1.5-3,3.4-3h31.5c2,0,3.7,1.4,3.7,3.2v18.8H4.2z"/>
		<path class="st2" d="M43.6,30.5H3.4V10.7c0-2.1,1.9-3.8,4.2-3.8h31.5c2.5,0,4.5,1.8,4.5,4V30.5z M5,28.9h37v-18
			c0-1.3-1.3-2.4-2.9-2.4H7.7c-1.5,0-2.6,1-2.6,2.2V28.9z"/>
	</g>
	<g>
		<polyline class="st1" points="39.6,27.7 39.6,11.1 7.7,11.1 7.7,27.7 		"/>
		<polygon class="st2" points="40.4,27.7 38.8,27.7 38.8,11.9 8.5,11.9 8.5,27.7 6.9,27.7 6.9,10.3 40.4,10.3 		"/>
	</g>
	<g>
		<path class="st1" d="M23.5,29.7H4.3c0,0,0.1,5.2,4.1,5.2c3.9,0,15.2,0,15.2,0s11.3,0,15.2,0c3.9,0,4.1-5.2,4.1-5.2H23.5z"/>
		<path class="st2" d="M38.7,35.7H8.3c-3.7,0-4.8-3.9-4.9-5.9l0-0.8h40.1l0,0.8C43.5,31.8,42.4,35.7,38.7,35.7z M5.2,30.5
			c0.2,1.3,0.9,3.6,3.2,3.6h30.4c2.3,0,3-2.3,3.2-3.6H5.2z"/>
	</g>
	<g>
		<path class="st3" d="M34.7,27.7v-2h-2.7c-0.2-1-0.7-2-1.2-2.8l2-2l-2.6-2.6l-2,2c-0.8-0.5-1.7-0.9-2.7-1.1v-3h-3.7v2.9
			c-1,0.2-2,0.5-2.8,1L17,18.3l-2.6,2.6l1.7,1.7c-0.7,0.9-1.2,2-1.5,3.2h-2.2v2"/>
		<path class="st2" d="M35.5,27.7h-1.6v-1.2h-2.5l-0.1-0.6c-0.2-0.9-0.6-1.8-1.1-2.6l-0.4-0.5l1.9-1.9l-1.5-1.5l-1.9,1.9L27.6,21
			c-0.8-0.5-1.6-0.8-2.5-1l-0.6-0.1V17h-2.1v2.8l-0.7,0.1c-0.9,0.2-1.8,0.5-2.6,0.9l-0.5,0.3L17,19.4l-1.5,1.5l1.6,1.6l-0.4,0.6
			c-0.6,0.9-1.1,1.8-1.3,2.9l-0.1,0.6h-2v1.2h-1.6v-2.8H14c0.2-0.8,0.6-1.5,1-2.3l-1.8-1.8l3.8-3.8l2,2c0.6-0.3,1.2-0.5,1.9-0.7v-3
			h5.3v3.2c0.6,0.2,1.2,0.4,1.8,0.7l2.2-2.2l3.8,3.8L31.7,23c0.3,0.6,0.6,1.2,0.8,1.9h2.9V27.7z"/>
	</g>
	<g>
		<path class="st1" d="M17.9,27.7c0-3.1,2.5-5.6,5.6-5.6s5.6,2.5,5.6,5.6"/>
		<path class="st2" d="M29.9,27.7h-1.6c0-2.6-2.2-4.8-4.8-4.8s-4.8,2.2-4.8,4.8h-1.6c0-3.5,2.9-6.4,6.4-6.4
			C27,21.3,29.9,24.2,29.9,27.7z"/>
	</g>
	<g>
		<path class="st4" d="M21.1,27.7c0-1.4,1.1-2.5,2.5-2.5s2.5,1.1,2.5,2.5"/>
		<path class="st2" d="M26.8,27.7h-1.6c0-0.9-0.7-1.7-1.7-1.7s-1.7,0.7-1.7,1.7h-1.6c0-1.8,1.5-3.3,3.3-3.3
			C25.3,24.4,26.8,25.9,26.8,27.7z"/>
	</g>
</g>
<g>
	<g>
		<path class="st0" d="M15.5,43.8H4.3c-1.9,0-3.4-1.5-3.4-3.4v-4.5h1.6v4.5c0,1,0.8,1.8,1.8,1.8h11.2V43.8z"/>
	</g>
	<g>
		<path class="st0" d="M42.7,43.8H31.5v-1.6h11.2c1,0,1.8-0.8,1.8-1.8l0-4.5h1.6l0,4.5C46.1,42.3,44.6,43.8,42.7,43.8z"/>
	</g>
</g>
<g>
	<g>
		<path class="st0" d="M2.5,10.1H0.9V5.6c0-1.9,1.5-3.4,3.4-3.4h11.2v1.6H4.3c-1,0-1.8,0.8-1.8,1.8V10.1z"/>
	</g>
	<g>
		<path class="st0" d="M44.5,10.1l0-4.5c0-1-0.8-1.8-1.8-1.8H31.5V2.2h11.2c1.9,0,3.4,1.5,3.4,3.4l0,4.5H44.5z"/>
	</g>
</g>
</svg>
