<?xml version="1.0" encoding="UTF-8"?>
<svg width="48px" height="43px" viewBox="0 0 48 43" version="1.1" xmlns="http://www.w3.org/2000/svg" xmlns:xlink="http://www.w3.org/1999/xlink">
    <!-- Generator: Sketch 57 (83077) - https://sketch.com -->
    <title>编组 2</title>
    <desc>Created with Sketch.</desc>
    <g id="页面-1" stroke="none" stroke-width="1" fill="none" fill-rule="evenodd">
        <g id="用户数据1" transform="translate(-1549.000000, -150.000000)" fill-rule="nonzero">
            <g id="编组-2" transform="translate(1549.947662, 148.000000)">
                <rect id="矩形" fill-opacity="0" fill="#000000" x="0.052337682" y="0" width="47" height="47"></rect>
                <path d="M5.55233768,23 C5.55233768,29.4 8.95233768,35.4 14.5523377,38.6 C20.1523377,41.8 26.9523377,41.8 32.5523377,38.6 C38.1523377,35.4 41.5523377,29.4 41.5523377,23 C41.5523377,16.6 38.1523377,10.6 32.5523377,7.4 C26.9523377,4.2 20.1523377,4.2 14.5523377,7.4 C8.95233768,10.6 5.55233768,16.6 5.55233768,23 Z" id="路径" fill="#E9EAEB"></path>
                <g id="编组" transform="translate(5.052338, 7.000000)">
                    <g>
                        <path d="M25.4117647,0.941176471 L11.2941176,0.941176471 C10.2588235,0.941176471 9.41176471,1.50588235 8.84705882,2.35294118 L1.78823529,14.5882353 C1.31764706,15.4352941 1.31764706,16.4705882 1.78823529,17.4117647 L8.84705882,29.6470588 C9.31764706,30.4941176 10.2588235,31.0588235 11.2941176,31.0588235 L25.4117647,31.0588235 C26.4470588,31.0588235 27.2941176,30.4941176 27.8588235,29.6470588 L34.9176471,17.4117647 C35.3882353,16.5647059 35.3882353,15.5294118 34.9176471,14.5882353 L27.8588235,2.35294118 C27.3882353,1.50588235 26.4470588,0.941176471 25.4117647,0.941176471 Z" id="路径" fill="#FFFFFF"></path>
                        <path d="M25.4117647,31.8117647 L11.2941176,31.8117647 C10.0705882,31.8117647 8.84705882,31.1529412 8.18823529,30.0235294 L1.12941176,17.7882353 C0.470588235,16.6588235 0.470588235,15.3411765 1.12941176,14.2117647 L8.18823529,1.97647059 C8.84705882,0.847058824 9.97647059,0.188235294 11.2941176,0.188235294 L25.4117647,0.188235294 C26.6352941,0.188235294 27.8588235,0.847058824 28.5176471,1.97647059 L35.5764706,14.2117647 C36.2352941,15.3411765 36.2352941,16.6588235 35.5764706,17.7882353 L28.5176471,30.0235294 C27.8588235,31.1529412 26.7294118,31.8117647 25.4117647,31.8117647 Z M11.2941176,1.69411765 C10.5411765,1.69411765 9.88235294,2.07058824 9.50588235,2.72941176 L2.44705882,14.9647059 C2.07058824,15.6235294 2.07058824,16.3764706 2.44705882,17.0352941 L9.50588235,29.2705882 C9.88235294,29.9294118 10.5411765,30.3058824 11.2941176,30.3058824 L25.4117647,30.3058824 C26.1647059,30.3058824 26.8235294,29.9294118 27.2,29.2705882 L34.2588235,17.0352941 C34.6352941,16.3764706 34.6352941,15.6235294 34.2588235,14.9647059 L27.2,2.72941176 C26.8235294,2.07058824 26.1647059,1.69411765 25.4117647,1.69411765 L11.2941176,1.69411765 Z" id="形状" fill="#2A5082"></path>
                    </g>
                    <g transform="translate(5.647059, 12.235294)">
                        <path d="M1.03529412,3.76470588 C1.03529412,5.08235294 2.07058824,6.11764706 3.38823529,6.11764706 C4.70588235,6.11764706 5.74117647,5.08235294 5.74117647,3.76470588 C5.74117647,2.44705882 4.70588235,1.41176471 3.38823529,1.41176471 C2.07058824,1.41176471 1.03529412,2.44705882 1.03529412,3.76470588 L1.03529412,3.76470588 Z" id="路径_4_" fill="#A3D4FF"></path>
                        <path d="M3.38823529,7.05882353 C1.6,7.05882353 0.0941176471,5.55294118 0.0941176471,3.76470588 C0.0941176471,1.97647059 1.6,0.470588235 3.38823529,0.470588235 C5.17647059,0.470588235 6.68235294,1.97647059 6.68235294,3.76470588 C6.68235294,4.61176471 6.30588235,5.45882353 5.74117647,6.11764706 C5.17647059,6.77647059 4.23529412,7.05882353 3.38823529,7.05882353 L3.38823529,7.05882353 Z M3.38823529,1.97647059 C2.35294118,1.97647059 1.6,2.82352941 1.6,3.76470588 C1.6,4.8 2.44705882,5.55294118 3.38823529,5.55294118 C4.32941176,5.55294118 5.17647059,4.70588235 5.17647059,3.76470588 C5.17647059,2.72941176 4.42352941,1.97647059 3.38823529,1.97647059 Z" id="形状_4_" fill="#2A5082"></path>
                    </g>
                    <path d="M18.0705882,19.2941176 C16.2823529,19.2941176 14.7764706,17.7882353 14.7764706,16 C14.7764706,14.2117647 16.2823529,12.7058824 18.0705882,12.7058824 C19.8588235,12.7058824 21.3647059,14.2117647 21.3647059,16 C21.3647059,16.8470588 20.9882353,17.6941176 20.4235294,18.3529412 C19.8588235,19.0117647 18.9176471,19.2941176 18.0705882,19.2941176 L18.0705882,19.2941176 Z M18.0705882,14.2117647 C17.0352941,14.2117647 16.2823529,15.0588235 16.2823529,16 C16.2823529,17.0352941 17.1294118,17.7882353 18.0705882,17.7882353 C19.0117647,17.7882353 19.8588235,16.9411765 19.8588235,16 C19.8588235,14.9647059 19.1058824,14.2117647 18.0705882,14.2117647 Z" id="形状_5_" fill="#2A5082"></path>
                    <g transform="translate(19.764706, 3.764706)">
                        <path d="M1.6,3.57647059 C1.6,4.89411765 2.63529412,5.92941176 3.95294118,5.92941176 C5.27058824,5.92941176 6.30588235,4.89411765 6.30588235,3.57647059 C6.30588235,2.25882353 5.27058824,1.22352941 3.95294118,1.22352941 C2.63529412,1.22352941 1.6,2.25882353 1.6,3.57647059 L1.6,3.57647059 Z" id="路径_6_" fill="#A3D4FF"></path>
                        <path d="M3.95294118,6.87058824 C2.16470588,6.87058824 0.658823529,5.36470588 0.658823529,3.57647059 C0.658823529,1.78823529 2.16470588,0.282352941 3.95294118,0.282352941 C5.74117647,0.282352941 7.24705882,1.78823529 7.24705882,3.57647059 C7.24705882,4.42352941 6.87058824,5.27058824 6.30588235,5.92941176 C5.74117647,6.58823529 4.8,6.87058824 3.95294118,6.87058824 L3.95294118,6.87058824 Z M3.95294118,1.78823529 C2.91764706,1.78823529 2.16470588,2.63529412 2.16470588,3.57647059 C2.16470588,4.61176471 3.01176471,5.36470588 3.95294118,5.36470588 C4.89411765,5.36470588 5.74117647,4.51764706 5.74117647,3.57647059 C5.74117647,2.54117647 4.98823529,1.78823529 3.95294118,1.78823529 Z" id="形状_6_" fill="#2A5082"></path>
                    </g>
                    <g transform="translate(19.764706, 20.705882)">
                        <path d="M1.6,3.48235294 C1.6,4.8 2.63529412,5.83529412 3.95294118,5.83529412 C5.27058824,5.83529412 6.30588235,4.8 6.30588235,3.48235294 C6.30588235,2.16470588 5.27058824,1.12941176 3.95294118,1.12941176 C2.63529412,1.12941176 1.6,2.16470588 1.6,3.48235294 L1.6,3.48235294 Z" id="路径_7_" fill="#A3D4FF"></path>
                        <path d="M3.95294118,6.77647059 C2.16470588,6.77647059 0.658823529,5.27058824 0.658823529,3.48235294 C0.658823529,1.69411765 2.16470588,0.188235294 3.95294118,0.188235294 C5.74117647,0.188235294 7.24705882,1.69411765 7.24705882,3.48235294 C7.24705882,4.32941176 6.87058824,5.17647059 6.30588235,5.83529412 C5.74117647,6.49411765 4.8,6.77647059 3.95294118,6.77647059 L3.95294118,6.77647059 Z M3.95294118,1.69411765 C2.91764706,1.69411765 2.16470588,2.54117647 2.16470588,3.48235294 C2.16470588,4.51764706 3.01176471,5.27058824 3.95294118,5.27058824 C4.89411765,5.27058824 5.74117647,4.42352941 5.74117647,3.48235294 C5.74117647,2.44705882 4.98823529,1.69411765 3.95294118,1.69411765 Z" id="形状_7_" fill="#2A5082"></path>
                    </g>
                    <rect id="矩形" fill="#2A5082" x="11.2" y="15.2470588" width="3.85882353" height="1.78823529"></rect>
                    <rect id="矩形" fill="#2A5082" x="20.4235294" y="15.1529412" width="3.85882353" height="1.78823529"></rect>
                    <rect id="矩形" fill="#2A5082" x="22.7764706" y="9.69411765" width="1.88235294" height="12.6117647"></rect>
                </g>
                <path d="M29.7523377,44 L29.7523377,42.7 L33.1523377,42.7 C34.2523377,42.7 35.2523377,42.1 35.8523377,41.2 L37.8523377,37.7 L38.9523377,38.5 L36.9523377,41.9 C36.1523377,43.3 34.6523377,44.1 33.1523377,44.1 L29.7523377,44.1 L29.7523377,44 Z M14.0523377,44 C12.4523377,44 11.0523377,43.2 10.2523377,41.8 L9.05233768,39.6 L10.1523377,38.7 L11.4523377,41 C11.9523377,42 13.0523377,42.5 14.1523377,42.5 L17.7523377,42.5 L17.7523377,44 L14.0523377,44 Z M43.9523377,27.9 L45.4523377,24.6 C45.9523377,23.6 45.7523377,22.4 45.1523377,21.5 L43.4523377,19.1 L44.6523377,18.5 L46.2523377,20.7 C47.1523377,22 47.3523377,23.7 46.6523377,25.1 L45.1523377,28.5 L43.9523377,27.9 Z M0.552337682,25.2 C-0.247662318,23.8 -0.147662318,22.1 0.652337682,20.8 L2.55233768,17.6 L3.65233768,18.3 L1.75233768,21.4 C1.15233768,22.3 1.15233768,23.5 1.65233768,24.5 L3.05233768,27.1 L1.75233768,27.5 L0.552337682,25.2 Z M35.8523377,5 C35.3523377,4 34.2523377,3.5 33.1523377,3.5 L29.7523377,3.5 L29.7523377,2.1 L33.1523377,2.1 C34.7523377,2.1 36.1523377,2.9 36.9523377,4.3 L38.9523377,7.7 L37.8523377,8.5 L35.8523377,5 Z M8.95233768,6.4 L10.1523377,4.2 C11.0523377,2.9 12.4523377,2.1 14.0523377,2.1 L17.6523377,2.1 L17.6523377,3.4 L14.0523377,3.4 C12.9523377,3.4 11.9523377,4 11.3523377,4.9 L10.0523377,7.3 L8.95233768,6.4 Z" id="形状" fill="#BCC0C4"></path>
            </g>
        </g>
    </g>
</svg>