<?xml version="1.0" encoding="UTF-8"?>
<svg width="41px" height="42px" viewBox="0 0 41 42" version="1.1" xmlns="http://www.w3.org/2000/svg" xmlns:xlink="http://www.w3.org/1999/xlink">
    <!-- Generator: Sketch 57 (83077) - https://sketch.com -->
    <title>idc4</title>
    <desc>Created with Sketch.</desc>
    <g id="页面-1" stroke="none" stroke-width="1" fill="none" fill-rule="evenodd">
        <g id="用户数据1" transform="translate(-786.000000, -150.000000)" fill-rule="nonzero">
            <g id="idc4" transform="translate(782.000000, 148.000000)">
                <rect id="矩形" fill-opacity="0" fill="#000000" x="0.9" y="0" width="47" height="47"></rect>
                <path d="M6.4,26 C6.4,32.4 9.8,38.4 15.4,41.6 C21,44.8 27.8,44.8 33.4,41.6 C39,38.4 42.4,32.4 42.4,26 C42.4,19.6 39,13.6 33.4,10.4 C27.8,7.2 21,7.2 15.4,10.4 C9.8,13.6 6.4,19.6 6.4,26 Z" id="路径" fill="#E9EAEB"></path>
                <path d="M21.2,10 L9.5,16.5 L9.5,31.5 L21.2,38 C21.2,38 22.2,36.8 23.9,36.8 C25.6,36.8 26.5,38 26.5,38 L38.8,31.4 L38.8,16.3 L26.6,10 C26.6,10 25.6,11.1 24.1,11.1 C22.7,11.1 21.2,10 21.2,10 Z" id="路径" fill="#FFFFFF"></path>
                <circle id="椭圆形" fill="#A3D4FF" cx="24.1" cy="8.5" r="2.9"></circle>
                <circle id="椭圆形" fill="#A3D4FF" cx="24.1" cy="24.2" r="2.9"></circle>
                <circle id="椭圆形" fill="#A3D4FF" cx="24.1" cy="39.6" r="2.9"></circle>
                <circle id="椭圆形" fill="#BCC0C4" cx="24.1" cy="31.8" r="2.9"></circle>
                <path d="M27.7,5.5 C26.9,4.2 25.4,3.4 23.9,3.4 C22.4,3.4 20.9,4.2 20.1,5.5 L18.9,4.7 C20,3 21.9,2 23.9,2 C25.9,2 27.8,3 28.9,4.7 L27.7,5.5 Z" id="形状_1_" fill="#BCC0C4"></path>
                <path d="M39.7,16.5 C39.7,16.4 39.7,16.3 39.6,16.2 C39.6,16.2 39.6,16.2 39.6,16.1 C39.5,15.9 39.4,15.8 39.2,15.7 L27.5,9.3 C27.5,9.1 27.6,8.9 27.6,8.6 C27.6,6.7 26.1,5.1 24.1,5 C22.2,5 20.6,6.5 20.6,8.4 L20.6,8.6 C20.6,8.8 20.6,9 20.7,9.3 L8.9,15.7 C8.9,15.7 8.8,15.8 8.8,15.8 C8.8,15.8 8.7,15.9 8.7,15.9 C8.7,15.9 8.6,16 8.6,16 C8.6,16 8.5,16.1 8.5,16.1 C8.5,16.2 8.5,16.2 8.5,16.3 C8.5,16.3 8.5,16.4 8.5,16.4 L8.5,23.4 L8.5,23.7 L8.5,31.4 C8.5,31.7 8.7,32 9,32.2 L20.8,38.6 C20.7,38.9 20.7,39.1 20.7,39.4 C20.7,41.3 22.3,42.9 24.2,42.9 C25.1,42.9 26,42.5 26.7,41.9 C27.4,41.3 27.7,40.4 27.7,39.4 C27.7,39.1 27.7,38.8 27.6,38.6 L39.4,32.2 C39.7,32 39.9,31.7 39.9,31.4 L39.9,23.7 L39.9,23.5 L39.7,16.5 C39.7,16.5 39.7,16.5 39.7,16.5 Z M22,39.6 C22,38.5 22.9,37.7 24,37.7 L24.1,37.7 C25.1,37.7 26,38.6 26,39.6 C26,40.7 25.1,41.5 23.9,41.5 C23.9,41.5 23.9,41.5 23.9,41.5 C22.9,41.4 22.1,40.6 22,39.6 Z M24,36 C23,36 22.1,36.4 21.5,37.1 L10.2,30.9 L10.2,25.3 L20.6,31 C20.6,31.2 20.5,31.4 20.5,31.7 L20.5,31.9 C20.5,33.8 22.1,35.3 24,35.3 L24.1,35.3 C26,35.3 27.5,33.8 27.5,31.9 C27.5,31.6 27.5,31.3 27.4,31.1 L37.8,25.4 L37.8,31 L26.5,37.2 C25.9,36.4 25,36 24,36 Z M24,6.6 C25.1,6.6 25.9,7.5 25.9,8.5 C25.9,9.6 25,10.4 24,10.4 C23.2,10.4 22.5,9.9 22.2,9.3 C22.2,9.3 22.2,9.3 22.2,9.3 C22.2,9.3 22.2,9.3 22.2,9.3 C22.1,9.1 22,8.8 22,8.5 C22.1,7.5 23,6.6 24,6.6 Z M24,12.1 L24,12.1 C25.1,12.1 26,11.6 26.6,11 L36.9,16.6 L26.8,22 C26.2,21.2 25.2,20.6 24,20.6 C22.9,20.6 21.9,21.2 21.2,22 L11.2,16.5 L21.5,10.9 C22.1,11.6 23,12.1 24,12.1 Z M26,24.2 C26,25.3 25.1,26.1 24.1,26.1 C23,26.1 22.2,25.2 22.2,24.2 C22.2,23.1 23.1,22.3 24.1,22.3 C25.1,22.2 26,23.1 26,24.2 Z M24,27.6 L24,27.6 C26,27.6 27.5,26.1 27.5,24.2 C27.5,24 27.5,23.9 27.5,23.7 L37.9,18 L37.9,23.2 L26.6,29.4 C26,28.7 25.1,28.3 24,28.3 C23,28.3 22.1,28.7 21.4,29.4 L10.2,23.3 L10.2,18 L20.6,23.7 C20.6,23.8 20.6,23.9 20.6,24 L20.6,24.2 C20.6,26.1 22.2,27.6 24,27.6 Z M24.1,29.9 C25.2,29.9 26,30.8 26,31.8 C26,32.9 25.1,33.7 24,33.7 C24,33.7 24,33.7 24,33.7 C23,33.7 22.2,32.8 22.1,31.8 C22.1,30.8 23,29.9 24.1,29.9 Z" id="形状" fill="#2A5082"></path>
                <path d="M5.4,27.7 L4,27 L4,33.8 C4,33.8 3.9,34.4 4.5,34.8 C5.1,35.1 11.4,38.6 11.4,38.6 L11.2,36.7 L5.4,33.4 L5.4,27.7 Z" id="路径" fill="#BCC0C4"></path>
                <path d="M42.8,27.7 L44.2,27.1 L44.2,33.9 C44.2,33.9 44.3,34.5 43.7,34.9 C43.1,35.2 36.8,38.7 36.8,38.7 L37,36.8 L42.8,33.5 L42.8,27.7 Z" id="路径" fill="#BCC0C4"></path>
            </g>
        </g>
    </g>
</svg>