<?xml version="1.0" encoding="UTF-8"?>
<svg width="39px" height="40px" viewBox="0 0 39 40" version="1.1" xmlns="http://www.w3.org/2000/svg" xmlns:xlink="http://www.w3.org/1999/xlink">
    <!-- Generator: Sketch 57 (83077) - https://sketch.com -->
    <title>方格纹</title>
    <desc>Created with Sketch.</desc>
    <g id="页面-1" stroke="none" stroke-width="1" fill="none" fill-rule="evenodd">
        <g id="用户数据1" transform="translate(-1170.000000, -148.000000)" fill-rule="nonzero">
            <g id="方格纹" transform="translate(1166.000000, 140.000000)">
                <rect id="矩形" fill-opacity="0" fill="#000000" x="0" y="0.7" width="47" height="47"></rect>
                <path d="M5.5,26.7 C5.5,33.1 8.9,39.1 14.5,42.3 C20.1,45.5 26.9,45.5 32.5,42.3 C38.1,39.1 41.5,33.1 41.5,26.7 C41.5,20.3 38.1,14.3 32.5,11.1 C26.9,7.9 20.1,7.9 14.5,11.1 C8.9,14.3 5.5,20.3 5.5,26.7 Z" id="路径" fill="#E9EAEB"></path>
                <g id="访问安全" transform="translate(4.000000, 10.000000)">
                    <path d="M9.6,1.4 L28.8,1.4 C28.8,1.4 28.9,5.8 33.2,5.8 L33.2,22.4 C33.2,22.4 33.2,23.6 32.7,24.4 C32.2,25.1 26.3,31.5 20.9,33.9 C20.9,33.9 19.7,34.7 17.2,33.9 C14.7,33.1 6.5,25.7 5.9,24.6 C5.3,23.5 5.2,22.6 5.2,21.4 C5.2,20.2 5.2,5.9 5.2,5.9 C5.2,5.9 9.3,5.1 9.6,1.4 Z" id="路径" fill="#FFFFFF"></path>
                    <path d="M33.2,5.1 C33.1,5.1 33.1,5.1 33.1,5.1 C31.1,5.1 29.4,3.4 29.4,1.4 L29.4,0.8 L8.9,0.8 L8.9,1.4 C8.9,3.4 7.2,5.1 5.2,5.1 L4.6,5.1 L4.6,22.4 C4.6,23.3 4.9,24.2 5.6,25 C7.2,27 9.8,29.5 12.5,31.5 C14.6,33.1 17.4,34.9 19.2,34.9 C20.9,34.9 23.8,33 25.9,31.4 C28.6,29.4 31.2,26.9 32.8,25 C33.5,24.1 33.8,23.3 33.8,22.4 L33.8,5.1 L33.2,5.1 Z M28.3,2.1 C28.6,4.4 30.4,6.1 32.7,6.4 L32.7,22.5 C32.7,23.1 32.4,23.7 31.9,24.4 C30.4,26.3 27.8,28.7 25.2,30.6 C22.6,32.6 20.3,33.8 19.3,33.8 C18.2,33.8 15.9,32.6 13.4,30.6 C10.9,28.7 8.3,26.3 6.8,24.3 C6.3,23.7 6,23 6,22.4 L6,6.3 C8.2,6 10,4.3 10.3,2.1 L28.3,2.1 Z" id="形状" fill="#2A5082"></path>
                    <path d="M37.6,8.7 L37.6,24.2 C37.6,25.1 37.2,25.9 36.5,26.8 C34,30 29.3,34.1 25.3,36.8 L25.1,37 L25.8,38 L26,37.8 C30.2,35 34.9,30.8 37.5,27.5 C38.4,26.4 38.8,25.3 38.8,24.1 L38.8,8.6 L37.6,8.6 L37.6,8.7 Z" id="路径" fill="#BCC0C4"></path>
                    <path d="M14,36.7 C10.1,34 5.7,30 3.1,26.8 C2.4,25.9 2,25 2,24.2 L2,8.7 L0.8,8.7 L0.8,24.2 C0.8,25.3 1.2,26.5 2.1,27.6 C4.8,30.9 9.3,35 13.3,37.7 L13.5,37.9 L14.2,36.9 L14,36.7 Z" id="路径" fill="#BCC0C4"></path>
                    <path d="M19.5,16.2 L19.5,5.8 L26.8,5.8 L26.8,6 C27,7.3 28.2,8.3 29.5,8.3 L29.8,8.3 L29.9,8.6 L29.9,16.2 L19.5,16.2 Z" id="路径" fill="#B6F5FF"></path>
                    <path d="M29.6,8.6 L29.6,15.9 L19.7,15.9 L19.7,6 L26.5,6 C26.8,7.5 28,8.6 29.6,8.6 C29.6,8.6 29.6,8.6 29.6,8.6 Z" id="路径_25_" fill="#A3D4FF"></path>
                    <path d="M19.8,29 C17.7,29 12.6,24.8 10.4,22.1 C9.9,21.5 9.7,20.9 9.7,20.3 L9.7,15.6 L20.1,15.6 L20.1,29 L19.8,29 Z" id="路径" fill="#B6F5FF"></path>
                    <path d="M19.8,15.9 L19.8,28.7 C17.9,28.7 12.9,24.8 10.6,21.9 C10.2,21.4 10,20.9 10,20.3 L10,15.8 L19.8,15.9 L19.8,15.9 Z" id="路径_24_" fill="#A3D4FF"></path>
                    <path d="M29.3,7.4 L29.3,7.4 C28,7.4 26.9,6.5 26.8,5.3 L26.7,4.8 L20.1,4.8 L18.6,4.8 L11.9,4.8 L11.8,5.3 C11.6,6.5 10.6,7.4 9.3,7.4 L8.7,7.4 L8.7,14.6 L8.7,16.1 L8.7,19.7 C8.7,20.4 9,21.1 9.5,21.7 C10.7,23.2 12.6,24.9 14.5,26.4 C15.7,27.3 17.3,28.3 18.5,28.7 L18.5,28.9 L19.1,28.9 C19.1,28.9 19.2,28.9 19.2,28.9 C19.3,28.9 19.3,28.9 19.4,28.9 L20,28.9 L20,28.7 C21.3,28.3 23,27.1 24,26.4 C26,24.9 27.9,23.2 29,21.8 C29.5,21.2 29.8,20.5 29.8,19.8 L29.8,16.2 L29.8,14.7 L29.8,7.5 L29.3,7.5 L29.3,7.4 Z M9.9,14.7 L9.9,8.7 C10.6,8.6 11.2,8.3 11.7,7.8 C12.2,7.3 12.6,6.7 12.8,6.1 L18.5,6.1 L18.5,14.7 L9.9,14.7 Z M9.9,16.2 L18.5,16.2 L18.5,27.5 C16.4,26.6 12.5,23.6 10.4,21 C10.1,20.6 9.9,20.2 9.9,19.8 L9.9,16.2 Z M20.1,16.2 L20.1,16.2 L28.7,16.2 L28.7,19.8 C28.7,20.2 28.5,20.6 28.2,21 C26.2,23.4 22.2,26.6 20.1,27.5 L20.1,16.2 Z M28.7,14.7 L20.1,14.7 L20.1,6.1 L25.7,6.1 C25.9,6.8 26.3,7.4 26.8,7.8 C27.3,8.3 28,8.6 28.7,8.7 L28.7,14.7 Z" id="形状" fill="#2A5082"></path>
                    <polygon id="路径" fill="#BCC0C4" points="14.6 2.8 14.6 4.4 16.1 4.4 16.1 4.1 16.1 3.1 16.1 2.8"></polygon>
                    <polygon id="路径" fill="#BCC0C4" points="22.5 2.8 22.5 3.1 22.5 4.1 22.5 4.4 24 4.4 24 2.8"></polygon>
                    <polygon id="路径" fill="#BCC0C4" points="6.7 7.7 6.7 9.3 7 9.3 7.9 9.3 8.2 9.3 8.2 7.7"></polygon>
                    <polygon id="路径" fill="#BCC0C4" points="6.7 16 6.7 17.5 7 17.5 7.9 17.5 8.2 17.5 8.2 16"></polygon>
                    <polygon id="路径" fill="#BCC0C4" points="8.2 23.5 8.2 25.1 8.5 25.1 9.5 25.1 9.8 25.1 9.8 23.5"></polygon>
                    <polygon id="路径" fill="#BCC0C4" points="14.6 28.7 14.6 30.3 14.8 30.3 15.8 30.3 16.1 30.3 16.1 28.7"></polygon>
                    <polygon id="路径" fill="#BCC0C4" points="30.5 7.7 30.5 9.3 30.8 9.3 31.8 9.3 32.1 9.3 32.1 7.7"></polygon>
                    <polygon id="路径" fill="#BCC0C4" points="30.5 16 30.5 17.5 30.8 17.5 31.8 17.5 32.1 17.5 32.1 16"></polygon>
                    <polygon id="路径" fill="#BCC0C4" points="28.9 23.5 28.9 25.1 29.1 25.1 30.1 25.1 30.4 25.1 30.4 23.5"></polygon>
                    <polygon id="路径" fill="#BCC0C4" points="22.5 28.7 22.5 30.3 22.7 30.3 23.7 30.3 24 30.3 24 28.7"></polygon>
                </g>
            </g>
        </g>
    </g>
</svg>