<?xml version="1.0" encoding="utf-8"?>
<!-- Generator: Adobe Illustrator 21.0.0, SVG Export Plug-In . SVG Version: 6.00 Build 0)  -->
<svg version="1.1" id="图层_1" xmlns="http://www.w3.org/2000/svg" xmlns:xlink="http://www.w3.org/1999/xlink" x="0px" y="0px"
	 viewBox="0 0 47 47" style="enable-background:new 0 0 47 47;" xml:space="preserve">
<style type="text/css">
	.st0{fill:#E9EAEB;}
	.st1{fill:#FFFFFF;}
	.st2{fill:#2A5082;}
	.st3{fill:#A3D4FF;}
	.st4{fill:#BCC0C4;}
</style>
<g>
	<g id="路径">
		<path class="st0" d="M5.5,23.5c0,6.4,3.4,12.4,9,15.6c5.6,3.2,12.4,3.2,18,0s9-9.2,9-15.6s-3.4-12.4-9-15.6s-12.4-3.2-18,0
			S5.5,17.1,5.5,23.5z"/>
	</g>
	<g>
		<path class="st1" d="M38.2,31V16.4c0-0.8-0.4-1.5-1.1-1.9L24.5,7.3c-0.7-0.4-1.5-0.4-2.2,0L9.8,14.5c-0.7,0.4-1.1,1.1-1.1,1.9V31
			c0,0.8,0.4,1.5,1.1,1.9l12.6,7.3c0.7,0.4,1.5,0.4,2.2,0l12.6-7.3C37.8,32.5,38.2,31.7,38.2,31z"/>
		<path class="st2" d="M23.4,41.2c-0.5,0-1-0.1-1.5-0.4L9.4,33.6C8.4,33,7.9,32,7.9,31V16.4c0-1.1,0.6-2.1,1.5-2.6l12.6-7.3
			c0.9-0.5,2.1-0.5,3,0l12.6,7.3c0.9,0.5,1.5,1.5,1.5,2.6V31c0,1.1-0.6,2.1-1.5,2.6l-12.6,7.3C24.5,41.1,24,41.2,23.4,41.2z
			 M23.4,7.8c-0.2,0-0.5,0.1-0.7,0.2l-12.6,7.3c-0.4,0.2-0.7,0.7-0.7,1.2V31c0,0.5,0.3,1,0.7,1.2l12.6,7.3c0.4,0.2,1,0.2,1.4,0
			l12.6-7.3c0.4-0.2,0.7-0.7,0.7-1.2V16.4c0-0.5-0.3-1-0.7-1.2L24.1,8C23.9,7.8,23.7,7.8,23.4,7.8z"/>
	</g>
</g>
<g>
	<g>
		<circle class="st3" cx="23.5" cy="19.8" r="4.5"/>
	</g>
	<g>
		<path class="st2" d="M23.5,25.8c-3.3,0-6-2.7-6-6s2.7-6,6-6s6,2.7,6,6S26.8,25.8,23.5,25.8z M23.5,15.4c-2.4,0-4.4,2-4.4,4.4
			s2,4.4,4.4,4.4c2.4,0,4.4-2,4.4-4.4S25.9,15.4,23.5,15.4z"/>
	</g>
	<g>
		<path class="st2" d="M30.8,33.2c-0.4,0-0.8-0.4-0.8-0.8c0-2.3-1.3-4.5-3.3-5.7c-0.4-0.2-0.5-0.7-0.3-1.1c0.2-0.4,0.7-0.5,1.1-0.3
			c2.6,1.4,4.2,4.2,4.2,7.1C31.6,32.8,31.3,33.2,30.8,33.2z"/>
	</g>
	<g>
		<path class="st2" d="M16.2,33.2c-0.4,0-0.8-0.4-0.8-0.8c0-4.5,3.7-8.1,8.1-8.1c0.4,0,0.8,0.4,0.8,0.8c0,0.4-0.4,0.8-0.8,0.8
			c-3.6,0-6.5,2.9-6.5,6.5C17,32.8,16.6,33.2,16.2,33.2z"/>
	</g>
</g>
<g>
	<g>
		<path class="st4" d="M27.8,43l-2.3,1.3c-1.2,0.7-2.8,0.7-4,0L19.2,43h-2.8l4.4,2.5c0.8,0.5,1.8,0.7,2.7,0.7c0.9,0,1.9-0.2,2.7-0.7
			l4.4-2.5H27.8z"/>
	</g>
	<g>
		<path class="st4" d="M42.6,29.5v2.6c0,1.4-0.8,2.8-2,3.5L38.3,37l-1.4,2.4l4.4-2.5c1.7-1,2.7-2.8,2.7-4.7v-5.1L42.6,29.5z"/>
	</g>
	<g>
		<path class="st4" d="M38.3,10.1l2.3,1.3c1.2,0.7,2,2.1,2,3.5v2.6l1.4,2.4v-5c0-1.9-1-3.7-2.7-4.7l-4.3-2.5L38.3,10.1z"/>
	</g>
	<g>
		<path class="st4" d="M8.7,37l-2.2-1.3c-1.2-0.7-2-2.1-2-3.5v-2.6l-1.4-2.4v5c0,1.9,1,3.7,2.7,4.7l4.3,2.5L8.7,37z"/>
	</g>
	<g>
		<path class="st4" d="M4.5,17.4v-2.5c0-1.4,0.8-2.8,2-3.5l2.2-1.3l1.4-2.4l-4.3,2.5c-1.7,1-2.7,2.8-2.7,4.7v5L4.5,17.4z"/>
	</g>
	<g>
		<path class="st4" d="M19.3,4l2.2-1.3c0.6-0.4,1.3-0.5,2-0.5c0.7,0,1.4,0.2,2,0.5L27.7,4h2.8l-4.3-2.5c-1.7-1-3.8-1-5.4,0L16.5,4
			H19.3z"/>
	</g>
</g>
</svg>
